<svg width="24" height="24" viewBox="0 0 24 24" fill="none" xmlns="http://www.w3.org/2000/svg">
<path d="M14.9167 11.9998L21.8022 4.57197C22.0659 4.3082 22.0659 3.88135 21.8022 3.61767L20.3825 2.19749C20.2561 2.07114 20.0845 2 19.9054 2C19.7263 2 19.5547 2.07114 19.4283 2.19749L12 9.08269L4.57174 2.19749C4.44531 2.07114 4.27372 2 4.09459 2C3.9155 2 3.74388 2.07114 3.61748 2.19749L2.19783 3.61767C1.93406 3.88135 1.93406 4.3082 2.19783 4.57197L9.08333 11.9998L2.19857 19.4267C1.93492 19.6905 1.93492 20.1174 2.19857 20.381L3.61831 21.8012C3.74466 21.9276 3.91628 21.9987 4.09542 21.9987C4.27455 21.9987 4.44613 21.9276 4.57261 21.8012L12 14.916L19.4274 21.8012C19.5538 21.9276 19.7254 21.9987 19.9045 21.9987C20.0837 21.9987 20.2553 21.9276 20.3816 21.8012L21.8014 20.381C22.065 20.1174 22.065 19.6905 21.8014 19.4267L14.9167 11.9998Z" fill="#E4E4E4"/>
</svg>
