<svg width="143" height="58" viewBox="0 0 143 58" fill="none" xmlns="http://www.w3.org/2000/svg">
<path d="M132.429 21.1455C128.774 21.1455 125.211 22.2582 122.355 24.2816V28.9102C125.352 26.8503 128.476 25.8447 131.874 25.8447C136.502 25.8447 137.474 27.749 137.474 29.3443C137.474 31.8929 134.994 32.4967 133.189 32.9349C132.638 33.0762 132.076 33.2115 131.507 33.3489C126.137 34.6474 120.583 35.9923 120.583 42.0425C120.583 46.6185 123.406 49.2438 128.329 49.2438C131.89 49.2438 134.683 47.8746 136.635 45.1726L137.751 43.6318V48.745H143V29.73C143 24.3523 139.047 21.1414 132.429 21.1414M137.42 38.1066C137.42 42.0627 134.32 44.9323 130.049 44.9323C126.748 44.9323 126.056 43.2097 126.056 41.7658C126.056 38.6357 128.891 37.8724 132.818 36.8162L133.312 36.6829C134.74 36.273 135.837 35.9337 136.547 35.6066L137.42 35.2027V38.1066Z" fill="#ff003c"/>
<path d="M96.187 44.4739C94.733 44.4739 93.5271 43.6944 92.9886 43.0138C92.4481 42.3333 92.1799 41.1014 92.1799 39.3162V10.0426H86.5534V39.811C86.5534 43.0057 87.2431 45.3745 88.6265 46.9234C90.01 48.4723 92.1315 49.2478 94.9912 49.2478C96.913 49.2478 98.6474 48.9186 100.196 48.2623V43.6257C99.2564 44.2214 97.3728 44.4759 96.185 44.4759" fill="#ff003c"/>
<path d="M82.5261 37.0101H63.277C63.4948 41.6124 67.1712 44.2114 72.0374 44.2114C75.4436 44.2114 78.6884 43.0199 81.9332 40.6915V46.1056C78.8518 48.3795 75.498 49.2458 71.983 49.2458C63.4404 49.2458 57.8703 43.7772 57.8703 35.2209C57.8703 26.6646 63.2226 21.1434 71.0634 21.1434C78.9042 21.1434 82.5261 26.1799 82.5261 34.4636V37.0081V37.0101ZM63.3315 32.6239H77.1739C77.1739 28.7789 75.01 26.1799 70.7931 26.1799C66.5763 26.1799 64.0333 28.4538 63.3315 32.6239Z" fill="#ff003c"/>
<path d="M119.921 15.9475C118.245 15.0811 116.57 14.5944 115.055 14.5944C112.026 14.5944 109.701 16.3816 109.701 19.7379V21.6321H118.461V26.398H109.701V48.7611H104.24V26.398H98.2924V21.6321H104.24V19.4128C104.24 13.1324 108.727 9.55798 114.19 9.55798C116.029 9.55798 118.03 9.93764 119.921 10.804V15.9475Z" fill="#ff003c"/>
<path d="M42.7715 19.7258L45.1331 17.361C45.8228 18.2516 46.454 19.1906 47.0207 20.17L31.7303 35.4813L22.5786 44.6455C23.4236 44.8333 24.3009 44.9343 25.2023 44.9343C30.2541 44.9343 34.5919 41.8304 36.4211 37.4261L39.4864 38.6963C38.6132 40.7985 37.2923 42.6665 35.6426 44.1831C35.6426 44.1831 35.6426 44.1831 35.6406 44.1831C35.3865 44.4173 35.1203 44.6415 34.8501 44.8576C34.8037 44.8939 34.7553 44.9323 34.7089 44.9686C34.4447 45.1746 34.1765 45.3745 33.9002 45.5644C33.8942 45.5684 33.8881 45.5724 33.8821 45.5765C33.5997 45.7683 33.3113 45.948 33.0169 46.1217C32.9564 46.1581 32.8959 46.1924 32.8334 46.2267C32.549 46.3903 32.2586 46.5458 31.9622 46.6912C31.9501 46.6973 31.94 46.7013 31.9299 46.7073C31.6254 46.8548 31.3148 46.9901 31.0002 47.1173C30.9276 47.1476 30.855 47.1759 30.7824 47.2041C30.4779 47.3233 30.1694 47.4343 29.8548 47.5333C29.8407 47.5373 29.8286 47.5434 29.8144 47.5474C29.4898 47.6484 29.161 47.7373 28.8283 47.818C28.7456 47.8382 28.6649 47.8564 28.5823 47.8746C28.2576 47.9473 27.9289 48.0139 27.5961 48.0664C27.584 48.0684 27.5739 48.0705 27.5618 48.0725C27.221 48.125 26.8762 48.1613 26.5293 48.1916C26.4406 48.1997 26.3538 48.2058 26.2651 48.2118C25.9162 48.2361 25.5673 48.2522 25.2124 48.2522C25.2084 48.2522 25.2064 48.2522 25.2043 48.2522C24.9523 48.2522 24.7042 48.2462 24.4541 48.234C24.3755 48.23 24.2988 48.2239 24.2202 48.2179C24.0508 48.2078 23.8814 48.1957 23.714 48.1795C23.6212 48.1714 23.5285 48.1593 23.4337 48.1492C23.2824 48.131 23.1332 48.1129 22.984 48.0907C22.8852 48.0765 22.7863 48.0604 22.6875 48.0442C22.5443 48.02 22.4012 47.9957 22.262 47.9675C22.1632 47.9473 22.0644 47.9291 21.9656 47.9069C21.8244 47.8766 21.6832 47.8443 21.5441 47.81C21.4493 47.7857 21.3545 47.7635 21.2597 47.7393C21.1105 47.6989 20.9613 47.6565 20.814 47.6121C20.7314 47.5878 20.6507 47.5656 20.57 47.5394C19.2189 47.1133 17.9484 46.5034 16.7847 45.7441L19.1947 43.3309L35.7495 26.7534L38.1614 24.3381L42.7736 19.7217M3.31742 32.7733C3.31742 20.689 13.1346 10.8605 25.2003 10.8605C30.0766 10.8605 34.5839 12.47 38.226 15.182L40.5915 12.8112C36.3323 9.50746 30.9922 7.53851 25.1983 7.53851C11.3054 7.53649 0 18.8574 0 32.7733C0 38.5731 1.97029 43.9205 5.26754 48.1856L7.63108 45.8188C4.92269 42.1717 3.31742 37.6563 3.31742 32.7713M45.4174 41.158C44.3062 43.8317 42.6808 46.2388 40.6661 48.2583L40.6702 48.2623C40.6379 48.2946 40.6056 48.3229 40.5734 48.3552C40.3858 48.541 40.1942 48.7227 40.0006 48.9025C39.8877 49.0075 39.7687 49.1084 39.6538 49.2114C39.5267 49.3245 39.3997 49.4356 39.2706 49.5446C39.1577 49.6396 39.0407 49.7345 38.9258 49.8294C38.7927 49.9384 38.6555 50.0434 38.5204 50.1485C38.4095 50.2333 38.3006 50.3181 38.1877 50.4009C37.9557 50.5725 37.7238 50.7401 37.4838 50.9017C37.389 50.9663 37.2943 51.0269 37.1995 51.0875C37.0301 51.1986 36.8607 51.3096 36.6893 51.4146C36.5763 51.4833 36.4634 51.552 36.3505 51.6186C36.1811 51.7175 36.0117 51.8165 35.8423 51.9114C35.7374 51.97 35.6305 52.0306 35.5236 52.0871C35.2594 52.2305 34.9932 52.3678 34.721 52.4991C34.6464 52.5354 34.5697 52.5697 34.4931 52.6041C34.2793 52.705 34.0656 52.802 33.8478 52.8969C33.7389 52.9433 33.63 52.9898 33.5211 53.0342C33.3214 53.117 33.1218 53.1958 32.9221 53.2725C32.8213 53.3109 32.7184 53.3513 32.6156 53.3876C32.3212 53.4946 32.0267 53.5956 31.7262 53.6885C31.6738 53.7047 31.6194 53.7188 31.5669 53.735C31.3108 53.8137 31.0507 53.8864 30.7905 53.9551C30.6856 53.9833 30.5808 54.0096 30.4739 54.0338C30.2521 54.0904 30.0262 54.1409 29.8003 54.1893C29.6995 54.2115 29.5987 54.2338 29.4978 54.254C29.1812 54.3186 28.8626 54.3751 28.5399 54.4256C28.5097 54.4317 28.4794 54.4337 28.4492 54.4377C28.1527 54.4821 27.8542 54.5185 27.5558 54.5508C27.4509 54.5629 27.346 54.571 27.2392 54.5811C27.0012 54.6033 26.7612 54.6215 26.5212 54.6356C26.4164 54.6417 26.3135 54.6477 26.2086 54.6538C25.8799 54.6679 25.5512 54.678 25.2205 54.678C25.2144 54.678 25.2064 54.678 25.1983 54.678C20.32 54.678 15.8107 53.0706 12.1686 50.3585L9.80505 52.7252C14.0663 56.027 19.4044 58 25.1983 58C35.6789 58 44.6854 51.558 48.4787 42.4201L45.4134 41.1499L45.4174 41.158ZM33.6098 19.8045L21.4674 31.9635L14.6511 38.7892L12.2412 41.2024C12.2412 41.2024 12.2331 41.1903 12.2291 41.1842C12.0456 40.9015 11.8701 40.6147 11.7068 40.3199C11.7027 40.3138 11.7007 40.3098 11.6987 40.3058C11.376 39.7282 11.0897 39.1264 10.8416 38.5044C10.8174 38.4459 10.7952 38.3873 10.773 38.3287C10.6581 38.0299 10.5492 37.729 10.4524 37.422C10.4524 37.42 10.4524 37.416 10.4504 37.4139C10.4242 37.3311 10.402 37.2483 10.3778 37.1655C10.3334 37.0181 10.2911 36.8707 10.2527 36.7233C10.2285 36.6284 10.2043 36.5314 10.1822 36.4365C10.1479 36.2972 10.1156 36.1579 10.0854 36.0185C10.0632 35.9196 10.045 35.8186 10.0249 35.7176C10.0107 35.6469 9.99865 35.5742 9.98655 35.5036C9.97445 35.4349 9.96235 35.3662 9.95025 35.2956C9.93411 35.1946 9.91798 35.0956 9.90386 34.9947C9.8837 34.8472 9.86555 34.6998 9.8474 34.5504C9.8353 34.4555 9.82521 34.3606 9.81513 34.2636C9.799 34.1001 9.78891 33.9324 9.77681 33.7669C9.77076 33.6861 9.76471 33.6053 9.76068 33.5245C9.74858 33.2761 9.74253 33.0257 9.74253 32.7753C9.74253 32.7753 9.74253 32.7733 9.74253 32.7713C9.74253 32.4159 9.75866 32.0665 9.78286 31.7192C9.78891 31.6303 9.79496 31.5414 9.80303 31.4526C9.83328 31.1093 9.86756 30.77 9.92 30.4348C9.92 30.4227 9.92403 30.4126 9.92605 30.4005C9.97646 30.0693 10.043 29.7441 10.1136 29.419C10.1338 29.3281 10.1539 29.2393 10.1761 29.1484C10.2507 28.8334 10.3334 28.5224 10.4282 28.2154C10.4363 28.1852 10.4463 28.1569 10.4564 28.1266C10.5512 27.8277 10.6561 27.5329 10.767 27.2421C10.8033 27.1492 10.8376 27.0583 10.8759 26.9674C10.9888 26.6888 11.1078 26.4121 11.2369 26.1415C11.2631 26.089 11.2873 26.0365 11.3135 25.986C11.4406 25.7255 11.5777 25.469 11.7189 25.2186C11.7713 25.1237 11.8257 25.0328 11.8802 24.9399C12.0214 24.6996 12.1666 24.4633 12.3218 24.2331C12.5114 23.9464 12.7131 23.6657 12.9208 23.393C13.0761 23.1891 13.2374 22.9912 13.4028 22.7953C13.4814 22.7004 13.5641 22.6075 13.6448 22.5146C13.8061 22.3349 13.9695 22.1572 14.1369 21.9835C16.9461 19.0977 20.8645 17.3024 25.1963 17.3024C28.2999 17.3024 31.1898 18.2273 33.6118 19.8086M27.824 20.9011C26.979 20.7133 26.1018 20.6123 25.2023 20.6123C18.507 20.6123 13.0579 26.0668 13.0579 32.7733C13.0579 33.674 13.1588 34.5524 13.3463 35.3985L27.824 20.9011Z" fill="#ff003c"/>
<path d="M57.9853 3.97827V3.95606C57.9853 1.81345 59.6228 0 61.9259 0C63.2569 0 64.0756 0.371575 64.8621 1.03799L64.0111 2.05376C63.4222 1.55092 62.8434 1.23387 61.8714 1.23387C60.4638 1.23387 59.3949 2.46976 59.3949 3.93385V3.95606C59.3949 5.52919 60.4315 6.68835 61.9924 6.68835C62.7124 6.68835 63.3678 6.45813 63.8377 6.10877V4.677H61.8835V3.50775H65.1364V6.72066C64.3842 7.36485 63.3032 7.91212 61.9501 7.91212C59.5603 7.91212 57.9873 6.20772 57.9873 3.97827" fill="#ff003c"/>
<path d="M67.9738 0.131287H71.38C72.3399 0.131287 73.0942 0.416026 73.5842 0.89665C73.9876 1.31265 74.2175 1.88011 74.2175 2.54652V2.56874C74.2175 3.82482 73.4652 4.58009 72.3944 4.88502L74.4574 7.78088H72.8743L70.9968 5.11524H69.3169V7.78088H67.9738V0.131287ZM71.2812 3.92377C72.2411 3.92377 72.8522 3.42094 72.8522 2.64548V2.62326C72.8522 1.80337 72.2633 1.35506 71.2691 1.35506H69.3149V3.92377H71.2792H71.2812Z" fill="#ff003c"/>
<path d="M76.8371 4.53566V0.131287H78.1802V4.48114C78.1802 5.90079 78.9122 6.66616 80.1122 6.66616C81.3121 6.66616 82.0341 5.94522 82.0341 4.53566V0.131287H83.3772V4.47104C83.3772 6.75501 82.0885 7.90205 80.092 7.90205C78.0955 7.90205 76.8391 6.75501 76.8391 4.53566" fill="#ff003c"/>
<path d="M86.3114 0.131287H89.3243C91.103 0.131287 92.2283 1.14706 92.2283 2.68788V2.7101C92.2283 4.42661 90.8529 5.32122 89.1731 5.32122H87.6565V7.78088H86.3134V0.131287H86.3114ZM89.2134 4.10956C90.2278 4.10956 90.861 3.5421 90.861 2.74241V2.72019C90.861 1.82357 90.2177 1.35304 89.2134 1.35304H87.6525V4.10754H89.2134V4.10956Z" fill="#ff003c"/>
<path d="M94.3559 3.97827V3.95606C94.3559 1.80335 96.0156 0 98.361 0C100.706 0 102.344 1.78114 102.344 3.93385V3.95606C102.344 6.10877 100.684 7.91212 98.3388 7.91212C95.9935 7.91212 94.3559 6.13098 94.3559 3.97827ZM100.936 3.97827V3.95606C100.936 2.46976 99.8554 1.23387 98.3388 1.23387C96.8223 1.23387 95.7636 2.44755 95.7636 3.93385V3.95606C95.7636 5.44236 96.8445 6.67623 98.361 6.67623C99.8776 6.67623 100.936 5.46255 100.936 3.97625" fill="#ff003c"/>
</svg>
