<?xml version="1.0" encoding="UTF-8"?>
<svg width="133px" height="50px" viewBox="0 0 133 50" version="1.1" xmlns="http://www.w3.org/2000/svg" xmlns:xlink="http://www.w3.org/1999/xlink">
    <title>logo_cone_colorful</title>
    <g id="Page-1" stroke="none" stroke-width="1" fill="none" fill-rule="evenodd">
        <g id="logo_cone_colorful" transform="translate(0.000000, -0.000000)">
            <path d="M34.8772435,23.0238849 C34.8952435,23.2238849 34.9032435,23.4368849 34.9023267,23.6508849 L34.9023267,23.7138849 L34.9023267,23.7138849 L34.9023267,33.3228849 L34.9023267,33.3228849 L34.9023267,33.3868849 C34.9023267,33.6008849 34.8952435,33.8098849 34.8772435,34.0128849 L34.8772435,34.0128849 C34.8585769,34.2222182 34.8302435,34.4292182 34.7922435,34.6338849 C34.7542435,34.8385515 34.7062435,35.0428849 34.6482435,35.2468849 C34.5912435,35.4468849 34.5222435,35.6468849 34.4482435,35.8548849 C34.3720962,36.0517789 34.2846166,36.2441005 34.1862435,36.4308849 L34.1862435,36.4308849 C34.0855774,36.6208095 33.9740596,36.8047806 33.8522435,36.9818849 C33.728396,37.1635929 33.59487,37.3385119 33.4522435,37.5058849 C33.3036284,37.680571 33.146085,37.8474603 32.9802435,38.0058849 C32.810064,38.1691472 32.6297021,38.3214529 32.4402435,38.4618849 C32.242148,38.6091893 32.035813,38.7450765 31.8222435,38.8688849 C31.5915857,39.0028305 31.3542807,39.1249875 31.1112435,39.2348849 C30.8639102,39.3475515 30.6019102,39.4522182 30.3252435,39.5488849 C30.0397752,39.648365 29.7493941,39.733143 29.4552435,39.8028849 C29.1512435,39.8748849 28.8295769,39.9358849 28.4902435,39.9858849 C28.1509102,40.0358849 27.7929102,40.0748849 27.4162435,40.1028849 C27.0482435,40.1295515 26.6635769,40.1442182 26.2622435,40.1468849 L26.2622435,40.1468849 C25.8622435,40.1468849 25.4772435,40.1298849 25.1122435,40.1028849 C24.7472435,40.0758849 24.3842435,40.0378849 24.0412435,39.9868849 C23.6982435,39.9358849 23.3792435,39.8758849 23.0742435,39.8038849 C22.778092,39.7338565 22.485711,39.6487456 22.1982435,39.5488849 C21.9215769,39.4515515 21.6592435,39.3468849 21.4112435,39.2348849 C21.1685854,39.1248758 20.9316189,39.0027212 20.7012435,38.8688849 C20.4879321,38.7446597 20.2816201,38.6087875 20.0832435,38.4618849 C19.8940444,38.3211255 19.7137023,38.1688367 19.5432435,38.0058849 C19.3784329,37.8473775 19.2218924,37.68049 19.0742435,37.5058849 C18.9313346,37.3380441 18.7977982,37.1624437 18.6742435,36.9798849 C18.5529732,36.8033149 18.4417954,36.6200217 18.3412435,36.4308849 L18.3412435,36.4308849 C18.2672435,36.2908849 18.1992435,36.1478849 18.1412435,36.0018849 L18.1412435,36.0018849 L18.0822435,35.8498849 C18.0035769,35.6458849 17.9369102,35.4432182 17.8822435,35.2418849 C17.8252435,35.0418849 17.7772435,34.8418849 17.7392435,34.6298849 C17.7012435,34.4178849 17.6732435,34.2168849 17.6542435,34.0088849 L17.6542435,34.0088849 C17.6372435,33.8088849 17.6282435,33.5968849 17.6291683,33.3828849 L17.6291683,33.3148849 L17.6291683,33.3148849 L17.6291683,23.7148849 L17.6291683,23.7148849 L17.6291683,23.6468849 C17.6291683,23.4328849 17.6362435,23.2238849 17.6542435,23.0198849 L17.6542435,23.0198849 C17.6732435,22.8108849 17.7012435,22.6038849 17.7392435,22.3988849 C17.7772435,22.1938849 17.8252435,21.9868849 17.8822435,21.7878849 C17.9392435,21.5888849 18.0072435,21.3878849 18.0822435,21.1798849 L18.1312435,21.0528849 L18.1312435,21.0528849 C18.1979102,20.8982182 18.2699102,20.7458849 18.3472435,20.5958849 L18.3472435,20.5958849 C18.4481489,20.4057736 18.5596581,20.2214831 18.6812435,20.0438849 C18.8051901,19.8622483 18.9387121,19.6873345 19.0812435,19.5198849 C19.2282983,19.3482378 19.3841753,19.1843501 19.5482435,19.0288849 L19.5482435,19.0288849 C19.7191653,18.8660574 19.8998322,18.7137763 20.0892435,18.5728849 C20.2873873,18.4256494 20.4937183,18.2897647 20.7072435,18.1658849 C20.9319102,18.0358849 21.1689102,17.9138849 21.4182435,17.7998849 C21.6652435,17.6878849 21.9282435,17.5828849 22.2042435,17.4858849 C22.4913722,17.3863027 22.7834231,17.3015245 23.0792435,17.2318849 C23.3845769,17.1592182 23.7072435,17.0978849 24.0472435,17.0478849 C24.3912435,16.9978849 24.7472435,16.9578849 25.1192435,16.9318849 C25.4912435,16.9058849 25.8672435,16.8908849 26.2682435,16.8878849 L26.2682435,16.8878849 C26.6682435,16.8878849 27.0529102,16.9025515 27.4222435,16.9318849 C27.7932435,16.9588849 28.1522435,16.9978849 28.4962435,17.0488849 C28.8402435,17.0998849 29.1582435,17.1598849 29.4622435,17.2328849 C29.7564577,17.3019867 30.0468546,17.3864354 30.3322435,17.4858849 C30.6089102,17.5832182 30.8712435,17.6878849 31.1192435,17.7998849 C31.3682435,17.9128849 31.6052435,18.0358849 31.8292435,18.1648849 C32.0431357,18.2890547 32.2498019,18.4252741 32.4482435,18.5728849 C32.6370399,18.7133938 32.8170442,18.8653456 32.9872435,19.0278849 L32.9872435,19.0278849 L32.9872435,19.0278849 L32.9872435,19.0278849 C33.1517765,19.1842181 33.3083092,19.348761 33.4562435,19.5208849 C33.5991193,19.6887523 33.7326543,19.8643508 33.8562435,20.0468849 C33.9773594,20.2242445 34.0885307,20.4081945 34.1892435,20.5978849 C34.2879903,20.7844858 34.37548,20.9768297 34.4512435,21.1738849 C34.5299102,21.3772182 34.5965769,21.5798849 34.6512435,21.7818849 C34.7059102,21.9838849 34.7539102,22.1882182 34.7952435,22.3948849 C34.8332435,22.5948849 34.8612435,22.8078849 34.8802435,23.0158849 L34.8772435,23.0238849 Z M63.2892435,33.3508849 L63.2892435,33.3508849 L63.2892435,39.1278849 L63.2892435,39.1278849 C63.2598884,39.3183556 63.3238126,39.5113338 63.4610726,39.6466132 C63.5983327,39.7818926 63.7922196,39.8430052 63.9822435,39.8108849 L77.0002435,39.8108849 C77.4432435,39.8108849 77.6442435,39.4768849 77.5202435,39.0508849 L76.7672435,36.4638849 C76.7376945,36.2902209 76.6401471,36.1354961 76.4961937,36.0339593 C76.3522403,35.9324224 76.1737541,35.8924481 76.0002435,35.9228849 L67.7712435,35.9228849 L67.7712435,34.3378849 L67.7712435,34.3378849 L67.7712435,30.0608849 L74.9772435,30.0608849 C75.4222435,30.0608849 75.6462435,29.8548849 75.6462435,29.4058849 L75.6462435,26.8478849 C75.6746294,26.6624123 75.6132567,26.4744802 75.480877,26.3415087 C75.3484973,26.2085371 75.1608408,26.1463267 74.9752435,26.1738849 L67.7752435,26.1738849 L67.7752435,21.1318849 L76.0002435,21.1318849 C76.3582626,21.1897562 76.6960511,20.9483513 76.7572435,20.5908849 L77.5112435,18.0038849 C77.6342435,17.5778849 77.4332435,17.2438849 76.9902435,17.2438849 L63.9812435,17.2438849 C63.7912196,17.2117645 63.5973327,17.2728771 63.4600726,17.4081565 C63.3228126,17.5434359 63.2588884,17.7364141 63.2882435,17.9268849 L63.2882435,17.9268849 L63.2892435,33.3508849 Z M30.3552435,33.6648849 C30.3975437,33.4235642 30.4176278,33.1788732 30.4152435,32.9338849 L30.4152435,32.7708849 L30.4152435,32.7708849 L30.4152435,24.2708849 L30.4152435,24.2708849 L30.4152435,24.1078849 C30.4176334,23.8628963 30.3975493,23.6182048 30.3552435,23.3768849 C30.3158678,23.1556559 30.2524935,22.9393785 30.1662435,22.7318849 C30.0802033,22.5257595 29.9697476,22.3306994 29.8372435,22.1508849 C29.7023061,21.9699388 29.5465714,21.8054775 29.3732435,21.6608849 L29.3732435,21.6608849 C29.1930661,21.5093875 28.9953109,21.3801248 28.7842435,21.2758849 C28.549264,21.1599352 28.3034031,21.0674861 28.0502435,20.9998849 C27.7775162,20.9268091 27.4997591,20.8739985 27.2192435,20.8418849 C26.8982646,20.8044184 26.5754014,20.7853872 26.2522435,20.7848849 L26.2522435,20.7848849 C25.9290858,20.7853894 25.6062227,20.8044206 25.2852435,20.8418849 C25.004728,20.8739985 24.7269708,20.9268091 24.4542435,20.9998849 C24.2004173,21.0678501 23.9538958,21.1606306 23.7182435,21.2768849 C23.5073158,21.3817705 23.3095967,21.5113453 23.1292435,21.6628849 C22.9567196,21.8084502 22.8016814,21.9735558 22.6672435,22.1548849 C22.5359117,22.3336764 22.4261518,22.5273507 22.3402435,22.7318849 C22.2539259,22.939436 22.1902249,23.1556843 22.1502435,23.3768849 C22.1078712,23.6185328 22.0877868,23.8635624 22.0902435,24.1088849 L22.0902435,24.2718849 L22.0902435,24.2718849 L22.0902435,32.7718849 L22.0902435,32.7718849 L22.0902435,32.9378849 C22.087815,33.1832063 22.1078992,33.4282333 22.1502435,33.6698849 C22.1903772,33.8907254 22.2540746,34.1066261 22.3402435,34.3138849 C22.4259289,34.5188411 22.5357008,34.7128721 22.6672435,34.8918849 C22.8016307,35.0729566 22.9566782,35.2377364 23.1292435,35.3828849 C23.3094543,35.5346158 23.5071972,35.6642062 23.7182435,35.7688849 C23.9538414,35.8852646 24.2003754,35.9780498 24.4542435,36.0458849 C24.7269355,36.1191148 25.0047042,36.1719277 25.2852435,36.2038849 C25.6062196,36.2413841 25.9290847,36.2604154 26.2522435,36.2608849 L26.2522435,36.2608849 C26.5754016,36.2603891 26.8982651,36.2413578 27.2192435,36.2038849 C27.4997851,36.1719423 27.7775549,36.1191293 28.0502435,36.0458849 C28.3034051,35.9782898 28.5492666,35.8858405 28.7842435,35.7698849 C28.9951915,35.665436 29.1929226,35.536189 29.3732435,35.3848849 L29.3732435,35.3848849 C29.5466158,35.2403395 29.7023558,35.0758727 29.8372435,34.8948849 C29.9700889,34.7156503 30.0805717,34.5208782 30.1662435,34.3148849 C30.2524935,34.1073912 30.3158678,33.8911138 30.3552435,33.6698849 M12.7652435,21.2378849 C12.3822435,21.2018849 12.0002435,21.1378849 11.5882435,21.0948849 C11.4022435,21.0758849 11.2192435,21.0568849 11.0432435,21.0418849 L10.4962435,20.9938849 L10.0162435,20.9568849 L10.0042435,20.9568849 C9.83824354,20.9468849 9.67524354,20.9378849 9.51924354,20.9298849 C9.36324354,20.9218849 9.18624354,20.9138849 9.02624354,20.9088849 L9.02624354,20.9088849 C8.84924354,20.9028849 8.68624354,20.8978849 8.53924354,20.8948849 C8.40824354,20.8948849 8.27024354,20.8948849 8.12624354,20.8948849 C7.90124354,20.8948849 7.68724354,20.9038849 7.48424354,20.9218849 L7.48424354,20.9218849 C7.29234221,20.9373517 7.1014037,20.9630549 6.91224354,20.9988849 C6.73662647,21.0321266 6.56354027,21.0775701 6.39424354,21.1348849 C6.24187034,21.186189 6.09402754,21.2500758 5.95224354,21.3258849 L5.85724354,21.3768849 C5.62798357,21.5084014 5.42079409,21.6750979 5.24324354,21.8708849 C5.14465094,21.979887 5.05627966,22.0977154 4.97924354,22.2228849 C4.90691252,22.3407479 4.84469031,22.4645233 4.79324354,22.5928849 L4.79324354,22.5928849 L4.78124354,22.6218849 C4.72926507,22.7569713 4.68486275,22.8948522 4.64824354,23.0348849 C4.61157688,23.1782182 4.58057688,23.3305515 4.55524354,23.4918849 L4.54724354,23.5438849 L4.54724354,23.5438849 C4.52724354,23.6798849 4.51324354,23.8218849 4.50324354,23.9668849 C4.49224354,24.1378849 4.48724354,24.3148849 4.48824354,24.4958849 L4.48824354,24.6578849 L4.48824354,24.6578849 L4.48824354,32.3888849 L4.48824354,32.3888849 L4.48824354,32.5508849 C4.48824354,32.7318849 4.48824354,32.9088849 4.50324354,33.0798849 C4.51324354,33.2265515 4.52824354,33.3688849 4.54824354,33.5068849 L4.54824354,33.5068849 L4.55624354,33.5558849 C4.58124354,33.7178849 4.61224354,33.8708849 4.64924354,34.0128849 C4.68567483,34.1529722 4.73008053,34.2908636 4.78224354,34.4258849 L4.79424354,34.4548849 L4.79424354,34.4548849 C4.90100901,34.7199434 5.05330272,34.9642902 5.24424354,35.1768849 C5.42113634,35.3716068 5.62727253,35.5375954 5.85524354,35.6688849 L5.95524354,35.7218849 C6.09734479,35.7980291 6.24551994,35.8622495 6.39824354,35.9138849 C6.56757904,35.9708146 6.74066158,36.015923 6.91624354,36.0488849 C7.10537995,36.0850842 7.29632041,36.1111215 7.48824354,36.1268849 L7.48824354,36.1268849 C7.68824354,36.1442182 7.90224354,36.1532182 8.13024354,36.1538849 C8.27524354,36.1538849 8.41524354,36.1538849 8.54624354,36.1538849 C8.69424354,36.1538849 8.85624354,36.1488849 9.03224354,36.1388849 C9.19224354,36.1328849 9.35824354,36.1248849 9.52524354,36.1168849 L9.86124354,36.0968849 L9.86124354,36.0968849 L10.0132435,36.0878849 C10.1662435,36.0788849 10.3332435,36.0658849 10.5132435,36.0528849 C10.7132435,36.0378849 10.8892435,36.0228849 11.0482435,36.0078849 C11.2292435,35.9918849 11.4132435,35.9738849 11.6022435,35.9538849 L11.6022435,35.9538849 C11.7642435,35.9368849 11.9342435,35.9188849 12.1092435,35.8988849 L12.1232435,35.8988849 C12.2862435,35.8788849 12.5832435,35.8518849 12.7622435,35.8318849 C12.9454506,35.7871139 13.1389992,35.8192862 13.2978706,35.9209186 C13.456742,36.022551 13.5670884,36.1847847 13.6032435,36.3698849 L14.3402435,38.8378849 C14.4065389,38.9976759 14.3927262,39.1794938 14.3030524,39.3274359 C14.2133785,39.4753779 14.0585769,39.5717366 13.8862435,39.5868849 C13.5982435,39.6508849 13.3142435,39.7108849 13.0222435,39.7568849 C12.7555769,39.7982182 12.4975769,39.8362182 12.2482435,39.8708849 C11.9855769,39.9062182 11.7275769,39.9395515 11.4742435,39.9708849 C11.1942435,40.0022182 10.9175769,40.0292182 10.6442435,40.0518849 C10.3752435,40.0738849 10.0972435,40.0938849 9.81224354,40.1088849 L9.81224354,40.1088849 C9.54724354,40.1238849 9.27024354,40.1358849 8.98324354,40.1428849 C8.74591021,40.1488849 8.51424354,40.1525515 8.28824354,40.1538849 L8.28824354,40.1538849 L8.12524354,40.1538849 C7.64591021,40.1538849 7.19224354,40.1335515 6.76424354,40.0928849 L6.76424354,40.0928849 C6.32757688,40.0542182 5.91391021,39.9978849 5.52324354,39.9238849 C5.15557687,39.8558106 4.79227211,39.7659861 4.43524354,39.6548849 C4.10524877,39.5524748 3.78279953,39.4271707 3.47024354,39.2798849 C3.1824558,39.1441317 2.90415692,38.9891129 2.63724354,38.8158849 C2.38518013,38.6517892 2.14583628,38.4689385 1.92124354,38.2688849 C1.70706149,38.0750183 1.50907007,37.8639835 1.32924354,37.6378849 C1.15082779,37.41795 0.990630988,37.1838419 0.850243543,36.9378849 C0.70686975,36.6802233 0.581568144,36.4129132 0.475243543,36.1378849 C0.367669236,35.8619352 0.279128558,35.5789392 0.210243543,35.2908849 C0.137556402,34.9872257 0.0841167366,34.6792796 0.0502435431,34.3688849 L0.0502435431,34.3688849 C0.0152601787,34.0437451 -0.00143277931,33.7168969 0.000113010603,33.3898849 L0.000113010603,33.3258849 L0.000113010603,33.3258849 L0.000113010603,23.7148849 L0.000113010603,23.7148849 L0.000113010603,23.6508849 C-0.00155013803,23.3232048 0.015143049,22.9956845 0.0502435431,22.6698849 L0.0502435431,22.6698849 C0.0841928853,22.3595008 0.137631723,22.0515595 0.210243543,21.7478849 C0.279080077,21.4598172 0.367621784,21.1768178 0.475243543,20.9008849 C0.582075576,20.6278463 0.707710169,20.3625434 0.851243543,20.1068849 C0.991073533,19.8583709 1.15129025,19.6218924 1.33024354,19.3998849 C1.509833,19.1773052 1.70714392,18.9696271 1.92024354,18.7788849 C2.14471211,18.5786808 2.38406768,18.3958212 2.63624354,18.2318849 C2.90325925,18.0585308 3.18154398,17.9031858 3.46924354,17.7668849 C3.78186302,17.6200259 4.10430564,17.4950585 4.43424354,17.3928849 C4.79165008,17.2819251 5.15527916,17.192103 5.52324354,17.1238849 C5.91924354,17.0498849 6.33291021,16.9935515 6.76424354,16.9548849 C7.19557688,16.9162182 7.64924354,16.8958849 8.12524354,16.8938849 L8.28824354,16.8938849 L8.28824354,16.8938849 C8.51891021,16.8938849 8.75557688,16.8975515 8.99824354,16.9048849 C9.28491021,16.9115515 9.56091021,16.9218849 9.82624354,16.9358849 C10.1102435,16.9512182 10.3862435,16.9698849 10.6542435,16.9918849 C10.9252435,17.0138849 11.1992435,17.0398849 11.4742435,17.0708849 C11.7492435,17.1018849 12.0152435,17.1348849 12.2892435,17.1708849 C12.5632435,17.2068849 12.8352435,17.2498849 13.1112435,17.2958849 C13.1982435,17.3098849 13.4362435,17.3658849 13.5272435,17.3828849 C13.6545769,17.4062182 13.7812435,17.4355515 13.9072435,17.4708849 C14.0881767,17.5006311 14.244388,17.6141832 14.3285108,17.7771096 C14.4126336,17.940036 14.4147594,18.1331461 14.3342435,18.2978849 L13.5542435,20.7728849 C13.5112954,20.9391478 13.4036271,21.081324 13.2552305,21.1677321 C13.106834,21.2541402 12.9300399,21.2776004 12.7642435,21.2328849 M58.0482435,17.9278849 L58.0482435,17.9278849 L58.0482435,39.1278849 C58.0591314,39.3121154 57.9886908,39.4918555 57.8555265,39.6196316 C57.7223623,39.7474077 57.5398676,39.8103686 57.3562435,39.7918849 L52.7732435,39.7918849 C52.5889261,39.7954048 52.4079035,39.7427373 52.2542435,39.6408849 C52.1068692,39.5367591 51.9890305,39.3961795 51.9122435,39.2328849 L44.6632435,24.6718849 L43.9342435,23.2078849 L43.9342435,24.8428849 L43.9342435,24.8428849 L43.9342435,39.1048849 L43.9342435,39.1048849 C43.9650284,39.2923772 43.9051877,39.4833705 43.772921,39.6197766 C43.6406544,39.7561828 43.4515953,39.821879 43.2632435,39.7968849 L40.3892435,39.7968849 C40.1980516,39.8257159 40.0045288,39.7620428 39.8678072,39.6253212 C39.7310856,39.4885996 39.6674125,39.2950768 39.6962435,39.1038849 L39.6962435,39.1038849 L39.6962435,17.9358849 L39.6962435,17.9358849 C39.6677009,17.7443868 39.7317629,17.55071 39.8688654,17.4140021 C40.005968,17.2772941 40.1998286,17.2137905 40.3912435,17.2428849 L44.9692435,17.2428849 C45.3189001,17.2553493 45.6302085,17.4678174 45.7692435,17.7888849 L53.0692435,33.0978849 L53.8012435,34.6308849 L53.8012435,32.9308849 L53.8012435,32.9308849 L53.8012435,17.9228849 L53.8012435,17.9228849 C53.7729703,17.7328898 53.8373743,17.5408434 53.9744804,17.4063093 C54.1115865,17.2717752 54.3048179,17.2110192 54.4942435,17.2428849 L57.3712435,17.2428849 C57.5576572,17.2192065 57.7443975,17.2842294 57.8757898,17.4185677 C58.0071821,17.552906 58.068049,17.741042 58.0402435,17.9268849" id="Shape" fill="#52312D"></path>
            <path d="M113.542244,37.1798849 L112.414244,37.9988849 C106.933338,38.246701 101.445043,37.7136967 96.1142435,36.4158849 C92.5607141,35.6227279 89.2142939,34.0893921 86.2932435,31.9158849 L82.7802435,17.6948849 C86.8648127,23.3676803 92.398789,27.8385861 98.8032435,30.6398849 C104.156118,33.0832102 109.840979,34.7212725 115.673244,35.5008849 L113.542244,37.1798849 Z" id="Path" fill="#52312D"></path>
            <path d="M86.2952435,31.9108849 L82.7822435,17.6898849 C83.8688217,19.274906 85.094684,20.7597956 86.4452435,22.1268849 C86.5842435,22.8628849 86.7152435,23.5518849 86.7942435,23.9078849 C87.3412435,26.3638849 87.7712435,29.0468849 89.2182435,30.5548849 C90.4182435,31.8028849 94.2802435,33.7168849 95.2382435,34.1598849 C93.0982435,33.4768849 91.4862435,32.8598849 90.1382435,32.2878849 C88.7642435,31.7068849 87.1522435,30.7398849 86.2912435,31.9098849" id="Path" fill="#72544E"></path>
            <path d="M113.542244,37.1798849 L112.414244,37.9988849 C106.933338,38.246701 101.445043,37.7136967 96.1142435,36.4158849 C92.5607238,35.6226994 89.2143093,34.0893662 86.2932435,31.9158849 C87.1542435,30.7458849 88.7662435,31.7158849 90.1402435,32.2938849 C91.4842435,32.8638849 93.0962435,33.4828849 95.2402435,34.1658849 C100.824244,36.0048849 109.928244,36.8968849 111.359244,36.6658849 C112.833523,36.4361765 114.278829,36.0486157 115.670244,35.5098849 L113.542244,37.1798849 Z" id="Path" fill="#37000F"></path>
            <path d="M109.581244,40.0518849 L98.5812435,48.0248849 C97.0717511,49.3064192 95.0713126,49.8518602 93.1202435,49.5138849 C91.4697071,49.1051629 90.1892363,47.8030417 89.8082435,46.1458849 L88.2162435,39.7018849 C90.985905,40.4268353 93.8249333,40.8545836 96.6852435,40.9778849 C97.0712435,41.0008849 97.4602435,41.0168849 97.8522435,41.0298849 C101.785031,41.1518497 105.718877,40.8240572 109.577244,40.0528849" id="Path" fill="#52312D"></path>
            <path d="M109.581244,40.0518849 L98.5812435,48.0248849 C97.0717511,49.3064192 95.0713126,49.8518602 93.1202435,49.5138849 L93.0562435,49.4978849 L93.0412435,49.4978849 L93.0252435,49.4978849 L92.9942435,49.4888849 L92.9632435,49.4798849 L92.9432435,49.4738849 L92.9322435,49.4738849 L92.9002435,49.4648849 L92.8842435,49.4598849 L92.8702435,49.4598849 L92.8382435,49.4508849 L92.8082435,49.4408849 L92.8082435,49.4408849 L92.7972435,49.4408849 L92.7502435,49.4248849 L92.7322435,49.4188849 L92.7202435,49.4188849 L92.6892435,49.4078849 L92.6602435,49.3978849 L92.6332435,49.3878849 L92.6332435,49.3878849 L92.6032435,49.3768849 L92.5842435,49.3698849 L92.5722435,49.3698849 L92.5432435,49.3578849 L92.5132435,49.3458849 L92.4892435,49.3358849 L92.4832435,49.3358849 L92.4532435,49.3238849 L92.4252435,49.3118849 L92.3962435,49.2998849 L92.3392435,49.2738849 L92.3102435,49.2608849 L92.2812435,49.2478849 L92.2522435,49.2348849 L92.2242435,49.2208849 L92.1972435,49.2068849 L92.1692435,49.1928849 L92.1142435,49.1648849 L92.0862435,49.1508849 C92.0302435,49.1218849 91.9772435,49.0918849 91.9242435,49.0608849 L91.8972435,49.0438849 L91.7922435,48.9798849 L91.7672435,48.9628849 L91.7152435,48.9288849 L91.6912435,48.9118849 L91.6652435,48.8948849 L91.6402435,48.8778849 L91.6402435,48.8778849 L91.5402435,48.8078849 L91.5152435,48.7898849 L91.4732435,48.7578849 L91.4662435,48.7528849 L91.4422435,48.7338849 L91.4182435,48.7148849 L91.3942435,48.6958849 L91.3942435,48.6958849 L91.3502435,48.6598849 L91.3502435,48.6598849 C91.3552435,48.6328849 91.3622435,48.6068849 91.3682435,48.5808849 C91.7802435,46.9868849 94.2682435,47.2268849 96.5332435,47.0918849 L96.5332435,47.0918849 C98.4972435,47.0918849 103.690244,42.9778849 106.920244,40.5438849 C107.77891,40.4185515 108.639244,40.2705515 109.501244,40.0998849 C109.524606,40.1008041 109.547868,40.0963569 109.569244,40.0868849 L109.581244,40.0518849 Z" id="Shape" fill="#2E0005"></path>
            <path d="M91.3492435,48.6288849 C90.5839599,47.9872284 90.0448489,47.1168692 89.8112435,46.1458849 L88.2202435,39.7018849 C89.1112435,39.9498849 90.0382435,40.1588849 90.9922435,40.3328849 C91.5082435,42.6938849 91.9302435,44.8138849 92.6832435,45.6968849 C93.7428138,46.6300884 95.121492,47.1186613 96.5322435,47.0608849 C94.2262435,47.1988849 91.7002435,46.9478849 91.3492435,48.6298849" id="Path" fill="#72544E"></path>
            <path d="M94.1482435,23.8848849 C91.6037114,22.7015934 89.1870961,21.2607385 86.9362435,19.5848849 C89.1455076,20.3614419 91.410731,20.9685325 93.7122435,21.4008849 C97.3122435,23.4508849 102.738244,25.1748849 107.566244,26.3008849 L107.566244,26.3008849 C103.552244,25.8388849 99.2272435,24.9928849 94.3832435,24.0008849 L94.1482435,23.8848849 Z" id="Shape" fill="#FDBE64"></path>
            <path d="M81.3102435,9.94488485 C79.8912435,3.90388485 83.9772435,0.757884851 90.3042435,0.203884851 C106.280244,-1.18311515 123.472244,4.70988485 131.953244,11.7038849 C120.372244,7.58988485 98.1532435,6.49388485 86.8532435,11.2298849 C85.7585177,11.6161998 84.7236803,12.1548269 83.7792435,12.8298849 C83.1384078,13.267146 82.6583006,13.9021378 82.4122435,14.6378849 L81.3102435,9.94488485 Z" id="Path" fill="#FAA61A"></path>
            <path d="M131.949244,11.7028849 C120.368244,7.58888485 98.1492435,6.49288485 86.8492435,11.2288849 C85.7544326,11.6150039 84.7195686,12.1536449 83.7752435,12.8288849 C83.1346324,13.2659429 82.6545579,13.9005403 82.4082435,14.6358849 C82.0818836,12.5692396 83.1547006,10.534306 85.0442435,9.63588485 C97.0982435,4.02988485 121.784244,6.36588485 131.944244,11.7028849" id="Path" fill="#E9841D"></path>
            <path d="M81.3102435,9.94488485 C79.8912435,3.90488485 83.9772435,0.757884851 90.3042435,0.208884851 C91.6252435,0.0948848512 92.9562435,0.0298848512 94.2882435,0.00888485124 C87.7242435,0.667884851 81.3062435,3.20888485 83.4662435,10.8088849 C82.6016098,11.8861947 82.2211939,13.2732107 82.4152435,14.6408849 L81.3102435,9.94488485 Z" id="Path" fill="#FDBE64"></path>
            <path d="M120.851244,29.9838849 C107.151244,29.7288849 94.2392435,25.1458849 86.9362435,19.5838849 C91.6002435,21.2838849 98.8112435,22.5578849 107.227244,22.9498849 C117.175244,23.4128849 126.433244,22.5378849 132.303244,20.8308849 L120.851244,29.9838849 Z" id="Path" fill="#FAA61A"></path>
            <path d="M120.850244,29.9838849 C111.709274,29.8209872 102.69915,27.7825452 94.3782435,23.9948849 C110.137244,27.2308849 120.410244,28.9088849 132.302244,20.8308849 L120.850244,29.9838849 Z" id="Path" fill="#E9841D"></path>
        </g>
    </g>
</svg>