<svg width="205" height="205" viewBox="0 0 205 205" fill="none" xmlns="http://www.w3.org/2000/svg">
<g id="QR-MM1-G3" clip-path="url(#clip0_2121_75)">
<path id="Vector" d="M0 0H205V205H0V0Z" fill="white"/>
<g id="Vector_2">
<path d="M20 22.5H55ZM60 22.5H65ZM80 22.5H85ZM100 22.5H105ZM115 22.5H125ZM130 22.5H140ZM150 22.5H185ZM20 27.5H25ZM50 27.5H55ZM60 27.5H70ZM75 27.5H80ZM90 27.5H95ZM100 27.5H110ZM130 27.5H145ZM150 27.5H155ZM180 27.5H185ZM20 32.5H25ZM30 32.5H45ZM50 32.5H55ZM65 32.5H100ZM110 32.5H125ZM130 32.5H135ZM140 32.5H145ZM150 32.5H155ZM160 32.5H175ZM180 32.5H185ZM20 37.5H25ZM30 37.5H45ZM50 37.5H55ZM60 37.5H65ZM75 37.5H85ZM110 37.5H120ZM125 37.5H130ZM135 37.5H145ZM150 37.5H155ZM160 37.5H175ZM180 37.5H185ZM20 42.5H25ZM30 42.5H45ZM50 42.5H55ZM65 42.5H80ZM85 42.5H90ZM100 42.5H105ZM110 42.5H115ZM140 42.5H145ZM150 42.5H155ZM160 42.5H175ZM180 42.5H185ZM20 47.5H25ZM50 47.5H55ZM75 47.5H105ZM130 47.5H135ZM140 47.5H145ZM150 47.5H155ZM180 47.5H185ZM20 52.5H55ZM60 52.5H65ZM70 52.5H75ZM80 52.5H85ZM90 52.5H95ZM100 52.5H105ZM110 52.5H115ZM120 52.5H125ZM130 52.5H135ZM140 52.5H145ZM150 52.5H185ZM60 57.5H65ZM75 57.5H85ZM95 57.5H120ZM135 57.5H145ZM20 62.5H25ZM30 62.5H40ZM45 62.5H60ZM70 62.5H75ZM80 62.5H85ZM95 62.5H115ZM125 62.5H130ZM135 62.5H140ZM150 62.5H155ZM165 62.5H170ZM175 62.5H185ZM20 67.5H25ZM30 67.5H35ZM45 67.5H50ZM55 67.5H60ZM65 67.5H75ZM85 67.5H90ZM100 67.5H125ZM135 67.5H145ZM150 67.5H160ZM165 67.5H175ZM180 67.5H185ZM50 72.5H55ZM60 72.5H70ZM75 72.5H90ZM100 72.5H105ZM110 72.5H115ZM120 72.5H170ZM180 72.5H185ZM20 77.5H30ZM55 77.5H60ZM95 77.5H110ZM115 77.5H135ZM140 77.5H145ZM150 77.5H160ZM165 77.5H170ZM175 77.5H185ZM20 82.5H25ZM30 82.5H35ZM40 82.5H55ZM80 82.5H85ZM90 82.5H105ZM120 82.5H135ZM140 82.5H145ZM155 82.5H160ZM165 82.5H170ZM30 87.5H35ZM40 87.5H45ZM55 87.5H60ZM70 87.5H75ZM80 87.5H95ZM105 87.5H110ZM120 87.5H125ZM140 87.5H150ZM155 87.5H160ZM170 87.5H180ZM20 92.5H25ZM35 92.5H45ZM50 92.5H55ZM65 92.5H70ZM80 92.5H90ZM105 92.5H125ZM150 92.5H175ZM25 97.5H50ZM55 97.5H65ZM70 97.5H75ZM80 97.5H100ZM125 97.5H135ZM145 97.5H155ZM160 97.5H175ZM20 102.5H45ZM50 102.5H55ZM65 102.5H80ZM110 102.5H115ZM120 102.5H130ZM135 102.5H140ZM145 102.5H155ZM160 102.5H170ZM30 107.5H35ZM60 107.5H65ZM70 107.5H100ZM120 107.5H125ZM130 107.5H155ZM160 107.5H170ZM180 107.5H185ZM25 112.5H30ZM35 112.5H40ZM45 112.5H55ZM65 112.5H85ZM95 112.5H100ZM110 112.5H115ZM125 112.5H130ZM140 112.5H145ZM155 112.5H165ZM170 112.5H180ZM20 117.5H40ZM45 117.5H50ZM55 117.5H65ZM70 117.5H75ZM90 117.5H120ZM130 117.5H135ZM140 117.5H150ZM160 117.5H165ZM25 122.5H30ZM45 122.5H55ZM60 122.5H65ZM70 122.5H75ZM80 122.5H90ZM95 122.5H105ZM130 122.5H150ZM165 122.5H180ZM20 127.5H45ZM55 127.5H60ZM70 127.5H90ZM95 127.5H105ZM120 127.5H125ZM130 127.5H140ZM150 127.5H160ZM165 127.5H170ZM180 127.5H185ZM35 132.5H40ZM50 132.5H60ZM80 132.5H90ZM95 132.5H100ZM105 132.5H110ZM115 132.5H140ZM150 132.5H160ZM175 132.5H185ZM25 137.5H45ZM55 137.5H70ZM75 137.5H85ZM95 137.5H100ZM110 137.5H115ZM120 137.5H125ZM130 137.5H135ZM150 137.5H155ZM160 137.5H170ZM20 142.5H25ZM40 142.5H45ZM50 142.5H55ZM60 142.5H65ZM80 142.5H95ZM105 142.5H110ZM115 142.5H120ZM130 142.5H165ZM170 142.5H185ZM60 147.5H65ZM70 147.5H75ZM80 147.5H85ZM90 147.5H100ZM110 147.5H120ZM125 147.5H130ZM135 147.5H145ZM160 147.5H170ZM20 152.5H55ZM60 152.5H65ZM75 152.5H90ZM105 152.5H130ZM135 152.5H145ZM150 152.5H155ZM160 152.5H165ZM20 157.5H25ZM50 157.5H55ZM60 157.5H65ZM70 157.5H85ZM90 157.5H115ZM135 157.5H145ZM160 157.5H175ZM180 157.5H185ZM20 162.5H25ZM30 162.5H45ZM50 162.5H55ZM65 162.5H75ZM80 162.5H95ZM100 162.5H120ZM130 162.5H165ZM170 162.5H180ZM20 167.5H25ZM30 167.5H45ZM50 167.5H55ZM60 167.5H70ZM80 167.5H85ZM100 167.5H105ZM115 167.5H120ZM130 167.5H145ZM155 167.5H160ZM165 167.5H185ZM20 172.5H25ZM30 172.5H45ZM50 172.5H55ZM60 172.5H65ZM70 172.5H80ZM95 172.5H105ZM120 172.5H125ZM130 172.5H140ZM150 172.5H160ZM165 172.5H175ZM20 177.5H25ZM50 177.5H55ZM70 177.5H75ZM80 177.5H95ZM105 177.5H110ZM120 177.5H125ZM135 177.5H150ZM155 177.5H170ZM180 177.5H185ZM20 182.5H55ZM60 182.5H75ZM100 182.5H120ZM125 182.5H130ZM135 182.5H140ZM145 182.5H155ZM160 182.5H175Z" fill="black"/>
<path d="M20 22.5H55M60 22.5H65M80 22.5H85M100 22.5H105M115 22.5H125M130 22.5H140M150 22.5H185M20 27.5H25M50 27.5H55M60 27.5H70M75 27.5H80M90 27.5H95M100 27.5H110M130 27.5H145M150 27.5H155M180 27.5H185M20 32.5H25M30 32.5H45M50 32.5H55M65 32.5H100M110 32.5H125M130 32.5H135M140 32.5H145M150 32.5H155M160 32.5H175M180 32.5H185M20 37.5H25M30 37.5H45M50 37.5H55M60 37.5H65M75 37.5H85M110 37.5H120M125 37.5H130M135 37.5H145M150 37.5H155M160 37.5H175M180 37.5H185M20 42.5H25M30 42.5H45M50 42.5H55M65 42.5H80M85 42.5H90M100 42.5H105M110 42.5H115M140 42.5H145M150 42.5H155M160 42.5H175M180 42.5H185M20 47.5H25M50 47.5H55M75 47.5H105M130 47.5H135M140 47.5H145M150 47.5H155M180 47.5H185M20 52.5H55M60 52.5H65M70 52.5H75M80 52.5H85M90 52.5H95M100 52.5H105M110 52.5H115M120 52.5H125M130 52.5H135M140 52.5H145M150 52.5H185M60 57.5H65M75 57.5H85M95 57.5H120M135 57.5H145M20 62.5H25M30 62.5H40M45 62.5H60M70 62.5H75M80 62.5H85M95 62.5H115M125 62.5H130M135 62.5H140M150 62.5H155M165 62.5H170M175 62.5H185M20 67.5H25M30 67.5H35M45 67.5H50M55 67.5H60M65 67.5H75M85 67.5H90M100 67.5H125M135 67.5H145M150 67.5H160M165 67.5H175M180 67.5H185M50 72.5H55M60 72.5H70M75 72.5H90M100 72.5H105M110 72.5H115M120 72.5H170M180 72.5H185M20 77.5H30M55 77.5H60M95 77.5H110M115 77.5H135M140 77.5H145M150 77.5H160M165 77.5H170M175 77.5H185M20 82.5H25M30 82.5H35M40 82.5H55M80 82.5H85M90 82.5H105M120 82.5H135M140 82.5H145M155 82.5H160M165 82.5H170M30 87.5H35M40 87.5H45M55 87.5H60M70 87.5H75M80 87.5H95M105 87.5H110M120 87.5H125M140 87.5H150M155 87.5H160M170 87.5H180M20 92.5H25M35 92.5H45M50 92.5H55M65 92.5H70M80 92.5H90M105 92.5H125M150 92.5H175M25 97.5H50M55 97.5H65M70 97.5H75M80 97.5H100M125 97.5H135M145 97.5H155M160 97.5H175M20 102.5H45M50 102.5H55M65 102.5H80M110 102.5H115M120 102.5H130M135 102.5H140M145 102.5H155M160 102.5H170M30 107.5H35M60 107.5H65M70 107.5H100M120 107.5H125M130 107.5H155M160 107.5H170M180 107.5H185M25 112.5H30M35 112.5H40M45 112.5H55M65 112.5H85M95 112.5H100M110 112.5H115M125 112.5H130M140 112.5H145M155 112.5H165M170 112.5H180M20 117.5H40M45 117.5H50M55 117.5H65M70 117.5H75M90 117.5H120M130 117.5H135M140 117.5H150M160 117.5H165M25 122.5H30M45 122.5H55M60 122.5H65M70 122.5H75M80 122.5H90M95 122.5H105M130 122.5H150M165 122.5H180M20 127.5H45M55 127.5H60M70 127.5H90M95 127.5H105M120 127.5H125M130 127.5H140M150 127.5H160M165 127.5H170M180 127.5H185M35 132.5H40M50 132.5H60M80 132.5H90M95 132.5H100M105 132.5H110M115 132.5H140M150 132.5H160M175 132.5H185M25 137.5H45M55 137.5H70M75 137.5H85M95 137.5H100M110 137.5H115M120 137.5H125M130 137.5H135M150 137.5H155M160 137.5H170M20 142.5H25M40 142.5H45M50 142.5H55M60 142.5H65M80 142.5H95M105 142.5H110M115 142.5H120M130 142.5H165M170 142.5H185M60 147.5H65M70 147.5H75M80 147.5H85M90 147.5H100M110 147.5H120M125 147.5H130M135 147.5H145M160 147.5H170M20 152.5H55M60 152.5H65M75 152.5H90M105 152.5H130M135 152.5H145M150 152.5H155M160 152.5H165M20 157.5H25M50 157.5H55M60 157.5H65M70 157.5H85M90 157.5H115M135 157.5H145M160 157.5H175M180 157.5H185M20 162.5H25M30 162.5H45M50 162.5H55M65 162.5H75M80 162.5H95M100 162.5H120M130 162.5H165M170 162.5H180M20 167.5H25M30 167.5H45M50 167.5H55M60 167.5H70M80 167.5H85M100 167.5H105M115 167.5H120M130 167.5H145M155 167.5H160M165 167.5H185M20 172.5H25M30 172.5H45M50 172.5H55M60 172.5H65M70 172.5H80M95 172.5H105M120 172.5H125M130 172.5H140M150 172.5H160M165 172.5H175M20 177.5H25M50 177.5H55M70 177.5H75M80 177.5H95M105 177.5H110M120 177.5H125M135 177.5H150M155 177.5H170M180 177.5H185M20 182.5H55M60 182.5H75M100 182.5H120M125 182.5H130M135 182.5H140M145 182.5H155M160 182.5H175" stroke="black" stroke-width="5"/>
</g>
<g id="Page-1">
<rect id="Rectangle 1" x="80" y="80" width="45" height="45" fill="white"/>
<g id="logo_cone_colorful">
<path id="Path" fill-rule="evenodd" clip-rule="evenodd" d="M108.57 113.04L107.593 113.749C102.85 113.964 98.1008 113.502 93.4877 112.379C90.4125 111.693 87.5165 110.366 84.9887 108.485L81.9486 96.1783C85.4833 101.087 90.2724 104.956 95.8147 107.381C100.447 109.495 105.367 110.913 110.414 111.587L108.57 113.04Z" fill="#52312D"/>
<path id="Path_2" fill-rule="evenodd" clip-rule="evenodd" d="M84.9904 108.481L81.9503 96.1739C82.8906 97.5455 83.9515 98.8305 85.1202 100.014C85.2405 100.651 85.3539 101.247 85.4223 101.555C85.8956 103.68 86.2677 106.002 87.52 107.307C88.5584 108.387 91.9005 110.043 92.7296 110.427C90.8776 109.836 89.4826 109.302 88.3161 108.807C87.1271 108.304 85.7321 107.467 84.987 108.48" fill="#72544E"/>
<path id="Path_3" fill-rule="evenodd" clip-rule="evenodd" d="M108.57 113.04L107.593 113.749C102.85 113.963 98.1008 113.502 93.4876 112.379C90.4125 111.693 87.5165 110.366 84.9887 108.485C85.7338 107.472 87.1288 108.312 88.3178 108.812C89.4809 109.305 90.8759 109.841 92.7313 110.432C97.5636 112.023 105.442 112.795 106.68 112.595C107.956 112.397 109.207 112.061 110.411 111.595L108.57 113.04Z" fill="#37000F"/>
<path id="Path_4" fill-rule="evenodd" clip-rule="evenodd" d="M105.142 115.526L95.6225 122.425C94.3162 123.534 92.5851 124.006 90.8967 123.714C89.4683 123.36 88.3602 122.233 88.0305 120.799L86.6528 115.223C89.0496 115.85 91.5065 116.22 93.9818 116.327C94.3158 116.347 94.6524 116.361 94.9917 116.372C98.395 116.477 101.799 116.194 105.138 115.526" fill="#52312D"/>
<path id="Shape" fill-rule="evenodd" clip-rule="evenodd" d="M105.142 115.526L95.6226 122.425C94.3163 123.534 92.5852 124.006 90.8967 123.714L90.8414 123.7H90.8284H90.8145L90.7877 123.692L90.7609 123.684L90.7436 123.679H90.734L90.7064 123.672L90.6925 123.667H90.6804L90.6527 123.659L90.6267 123.651H90.6172L90.5765 123.637L90.561 123.632H90.5506L90.5238 123.622L90.4987 123.614L90.4753 123.605L90.4493 123.595L90.4329 123.589H90.4225L90.3974 123.579L90.3714 123.569L90.3507 123.56H90.3455L90.3195 123.549L90.2953 123.539L90.2702 123.529L90.2209 123.506L90.1958 123.495L90.1707 123.484L90.1456 123.472L90.1214 123.46L90.098 123.448L90.0738 123.436L90.0262 123.412L90.0019 123.4C89.9535 123.375 89.9076 123.349 89.8617 123.322L89.8384 123.307L89.7475 123.252L89.7259 123.237L89.6809 123.208L89.6601 123.193L89.6376 123.178L89.616 123.164L89.5294 123.103L89.5078 123.087L89.4714 123.06L89.4654 123.055L89.4446 123.039L89.4239 123.022L89.4031 123.006L89.365 122.975C89.3693 122.952 89.3754 122.929 89.3806 122.907C89.7371 121.527 91.8902 121.735 93.8503 121.618C95.5499 121.618 100.044 118.058 102.839 115.951C103.582 115.843 104.327 115.715 105.073 115.567C105.093 115.568 105.113 115.564 105.131 115.556L105.142 115.526Z" fill="#2E0005"/>
<path id="Path_5" fill-rule="evenodd" clip-rule="evenodd" d="M89.3641 122.948C88.7018 122.393 88.2353 121.639 88.0331 120.799L86.6563 115.223C87.4274 115.437 88.2296 115.618 89.0552 115.769C89.5017 117.812 89.8669 119.647 90.5185 120.411C91.4355 121.218 92.6286 121.641 93.8494 121.591C91.8538 121.71 89.6679 121.493 89.3641 122.949" fill="#72544E"/>
<path id="Shape_2" fill-rule="evenodd" clip-rule="evenodd" d="M91.7864 101.535C89.5844 100.511 87.493 99.2641 85.5452 97.8138C87.4571 98.4859 89.4173 99.0112 91.409 99.3854C94.5244 101.159 99.22 102.651 103.398 103.626C99.9244 103.226 96.1816 102.494 91.9897 101.635L91.7864 101.535Z" fill="#FDBE64"/>
<path id="Path_6" fill-rule="evenodd" clip-rule="evenodd" d="M80.6765 89.4716C79.4486 84.2438 82.9845 81.5213 88.4598 81.0419C102.285 79.8416 117.163 84.9413 124.502 90.9938C114.48 87.4336 95.2522 86.4851 85.4734 90.5836C84.526 90.9179 83.6305 91.384 82.8132 91.9682C82.2586 92.3466 81.8431 92.8961 81.6302 93.5328L80.6765 89.4716Z" fill="#FAA61A"/>
<path id="Path_7" fill-rule="evenodd" clip-rule="evenodd" d="M124.499 90.9928C114.477 87.4326 95.2487 86.4842 85.4699 90.5826C84.5224 90.9168 83.6269 91.3829 82.8097 91.9673C82.2553 92.3455 81.8398 92.8946 81.6267 93.531C81.3443 91.7426 82.2727 89.9816 83.9078 89.2041C94.3392 84.3527 115.702 86.3743 124.494 90.9928" fill="#E9841D"/>
<path id="Path_8" fill-rule="evenodd" clip-rule="evenodd" d="M80.6765 89.4724C79.4485 84.2454 82.9845 81.5221 88.4598 81.047C89.603 80.9483 90.7548 80.8921 91.9075 80.8739C86.2271 81.4442 80.6731 83.6431 82.5423 90.2201C81.794 91.1523 81.4648 92.3526 81.6328 93.5362L80.6765 89.4724Z" fill="#FDBE64"/>
<path id="Path_9" fill-rule="evenodd" clip-rule="evenodd" d="M114.895 106.813C103.039 106.592 91.8651 102.626 85.5452 97.8129C89.5814 99.284 95.8216 100.387 103.105 100.726C111.714 101.126 119.725 100.369 124.805 98.892L114.895 106.813Z" fill="#FAA61A"/>
<path id="Path_10" fill-rule="evenodd" clip-rule="evenodd" d="M114.894 106.813C106.983 106.672 99.1861 104.908 91.9853 101.63C105.623 104.43 114.513 105.883 124.804 98.892L114.894 106.813Z" fill="#E9841D"/>
</g>
</g>
</g>
<defs>
<clipPath id="clip0_2121_75">
<rect width="205" height="205" fill="white"/>
</clipPath>
</defs>
</svg>
