<svg width="153" height="71" viewBox="0 0 153 71" fill="none" xmlns="http://www.w3.org/2000/svg">
<path d="M21.7911 69.7169C21.6044 69.8983 21.3544 69.9998 21.0941 69.9998H3.91422C3.02331 69.9998 2.57715 68.9226 3.20712 68.2927L56.2071 15.2929C56.3946 15.1054 56.649 15 56.9142 15H69C69.5523 15 70 15.4477 70 16V60.336C70 60.4445 69.9816 60.5549 69.9465 60.6576C67.6407 67.4133 65.0162 68.9846 58.1135 69.8669C57.522 69.9425 57 69.478 57 68.8817V37.866C57 36.982 55.937 36.5328 55.3031 37.1489L21.7911 69.7169Z" fill="#003C58"/>
<path d="M74 15C73.4477 15 73 15.4477 73 16V68.9998C73 69.5521 73.4477 69.9998 74 69.9998H98.7947C98.9302 69.9998 99.0656 69.9721 99.1895 69.9173C105.627 67.0711 108.61 61.25 108.139 57.2677C108.086 56.812 107.678 56.5 107.219 56.5H88C87.4477 56.5 87 56.0523 87 55.5V16C87 15.4477 86.5523 15 86 15H74Z" fill="#003C58"/>
<path fill-rule="evenodd" clip-rule="evenodd" d="M111.04 70.0346C110.51 70.0257 110.094 69.5849 110.094 69.0544V16C110.094 15.4477 110.541 15 111.094 15H141.74C141.913 15 142.091 15.0236 142.258 15.0701C158.939 19.7385 152.939 42.9999 141 42.9999H126C125.5 43 125 43.4999 125 44.4999V59.3495C125 59.4492 124.985 59.5491 124.955 59.6442C123.014 65.8326 119.223 70.171 111.04 70.0346ZM126 23.9998C125.448 23.9999 125 24.4476 125 24.9998V32.4993C125 33.0516 125.448 33.4993 126 33.4993H138.098C138.65 33.4993 139.098 33.0516 139.098 32.4993V24.9993C139.098 24.447 138.65 23.9993 138.098 23.9993L126 23.9998Z" fill="#003C58"/>
<path d="M8.19318 7C8.08381 6.66525 7.93963 6.36529 7.76065 6.10014C7.58499 5.83168 7.37453 5.60298 7.12926 5.41406C6.88731 5.22514 6.61222 5.08097 6.30398 4.98153C5.99574 4.8821 5.65767 4.83239 5.28977 4.83239C4.68655 4.83239 4.13802 4.98816 3.64418 5.29972C3.15033 5.61127 2.75758 6.07031 2.46591 6.67685C2.17424 7.28338 2.02841 8.02746 2.02841 8.90909C2.02841 9.79072 2.1759 10.5348 2.47088 11.1413C2.76586 11.7479 3.16525 12.2069 3.66903 12.5185C4.17282 12.83 4.73958 12.9858 5.36932 12.9858C5.95265 12.9858 6.46638 12.8615 6.91051 12.6129C7.35795 12.361 7.70597 12.0064 7.95455 11.549C8.20644 11.0883 8.33239 10.5464 8.33239 9.9233L8.71023 10.0028H5.64773V8.90909H9.52557V10.0028C9.52557 10.8414 9.34659 11.5705 8.98864 12.1903C8.634 12.8101 8.14347 13.2907 7.51705 13.6321C6.89394 13.9702 6.17803 14.1392 5.36932 14.1392C4.4678 14.1392 3.67566 13.9271 2.9929 13.5028C2.31345 13.0786 1.78314 12.4754 1.40199 11.6932C1.02415 10.911 0.835227 9.98295 0.835227 8.90909C0.835227 8.10369 0.942945 7.3795 1.15838 6.73651C1.37713 6.0902 1.68537 5.54001 2.0831 5.08594C2.48082 4.63187 2.95147 4.28385 3.49503 4.0419C4.03859 3.79995 4.63684 3.67898 5.28977 3.67898C5.8267 3.67898 6.32718 3.76018 6.79119 3.92258C7.25852 4.08168 7.67448 4.30871 8.03906 4.60369C8.40696 4.89536 8.71354 5.24503 8.95881 5.6527C9.20407 6.05705 9.37311 6.50616 9.46591 7H8.19318ZM11.6373 14V3.81818H15.0776C15.873 3.81818 16.526 3.95407 17.0364 4.22585C17.5468 4.49432 17.9247 4.86387 18.1699 5.33452C18.4152 5.80516 18.5378 6.34044 18.5378 6.94034C18.5378 7.54025 18.4152 8.07221 18.1699 8.53622C17.9247 9.00024 17.5485 9.36482 17.0414 9.62997C16.5343 9.89181 15.8863 10.0227 15.0975 10.0227H12.3134V8.90909H15.0577C15.6013 8.90909 16.0388 8.82955 16.3702 8.67045C16.705 8.51136 16.9469 8.28598 17.0961 7.99432C17.2485 7.69934 17.3248 7.34801 17.3248 6.94034C17.3248 6.53267 17.2485 6.17637 17.0961 5.87145C16.9436 5.56652 16.7 5.3312 16.3652 5.16548C16.0305 4.99645 15.588 4.91193 15.0378 4.91193H12.8702V14H11.6373ZM16.4299 9.42614L18.9355 14H17.5037L15.0378 9.42614H16.4299ZM27.2741 3.81818H28.5071V10.5597C28.5071 11.2557 28.343 11.8771 28.0149 12.424C27.6901 12.9676 27.2311 13.3968 26.6378 13.7116C26.0445 14.0232 25.3485 14.179 24.5497 14.179C23.7509 14.179 23.0549 14.0232 22.4616 13.7116C21.8684 13.3968 21.4077 12.9676 21.0795 12.424C20.7547 11.8771 20.5923 11.2557 20.5923 10.5597V3.81818H21.8253V10.4602C21.8253 10.9574 21.9347 11.3999 22.1534 11.7876C22.3722 12.1721 22.6837 12.4754 23.0881 12.6974C23.4957 12.9162 23.983 13.0256 24.5497 13.0256C25.1165 13.0256 25.6037 12.9162 26.0114 12.6974C26.419 12.4754 26.7306 12.1721 26.946 11.7876C27.1648 11.3999 27.2741 10.9574 27.2741 10.4602V3.81818ZM30.9693 14V3.81818H34.4096C35.2084 3.81818 35.8613 3.96236 36.3684 4.25071C36.8788 4.53575 37.2567 4.92188 37.502 5.40909C37.7472 5.89631 37.8699 6.43987 37.8699 7.03977C37.8699 7.63968 37.7472 8.1849 37.502 8.67543C37.26 9.16596 36.8855 9.55705 36.3784 9.84872C35.8713 10.1371 35.2217 10.2812 34.4295 10.2812H31.9636V9.1875H34.3897C34.9366 9.1875 35.3758 9.09304 35.7072 8.90412C36.0386 8.7152 36.2789 8.45999 36.4281 8.13849C36.5806 7.81368 36.6568 7.44744 36.6568 7.03977C36.6568 6.6321 36.5806 6.26752 36.4281 5.94602C36.2789 5.62453 36.037 5.37263 35.7022 5.19034C35.3675 5.00473 34.9234 4.91193 34.3699 4.91193H32.2022V14H30.9693ZM48.4469 8.90909C48.4469 9.98295 48.253 10.911 47.8652 11.6932C47.4775 12.4754 46.9455 13.0786 46.2694 13.5028C45.5932 13.9271 44.821 14.1392 43.9526 14.1392C43.0842 14.1392 42.312 13.9271 41.6358 13.5028C40.9597 13.0786 40.4277 12.4754 40.04 11.6932C39.6522 10.911 39.4583 9.98295 39.4583 8.90909C39.4583 7.83523 39.6522 6.9072 40.04 6.125C40.4277 5.3428 40.9597 4.73958 41.6358 4.31534C42.312 3.8911 43.0842 3.67898 43.9526 3.67898C44.821 3.67898 45.5932 3.8911 46.2694 4.31534C46.9455 4.73958 47.4775 5.3428 47.8652 6.125C48.253 6.9072 48.4469 7.83523 48.4469 8.90909ZM47.2537 8.90909C47.2537 8.02746 47.1062 7.28338 46.8113 6.67685C46.5196 6.07031 46.1235 5.61127 45.623 5.29972C45.1259 4.98816 44.5691 4.83239 43.9526 4.83239C43.3361 4.83239 42.7776 4.98816 42.2772 5.29972C41.78 5.61127 41.3839 6.07031 41.089 6.67685C40.7973 7.28338 40.6515 8.02746 40.6515 8.90909C40.6515 9.79072 40.7973 10.5348 41.089 11.1413C41.3839 11.7479 41.78 12.2069 42.2772 12.5185C42.7776 12.83 43.3361 12.9858 43.9526 12.9858C44.5691 12.9858 45.1259 12.83 45.623 12.5185C46.1235 12.2069 46.5196 11.7479 46.8113 11.1413C47.1062 10.5348 47.2537 9.79072 47.2537 8.90909Z" fill="#003C58"/>
</svg>
